<?xml version="1.0" encoding="utf-8"?>
<!-- Generator: Adobe Illustrator 21.0.0, SVG Export Plug-In . SVG Version: 6.00 Build 0)  -->
<svg version="1.1" id="Layer_1" xmlns="http://www.w3.org/2000/svg" xmlns:xlink="http://www.w3.org/1999/xlink" x="0px" y="0px"
	 viewBox="0 0 1080 1920" style="enable-background:new 0 0 1080 1920;" xml:space="preserve">
<style type="text/css">
	.st0{fill:#BCBCBC;}
</style>
<g>
	<path class="st0" d="M761.5,336h-40.2v-24.4c-6.6-6.3-10.4-15-10.4-24.4c0-18.3,14.5-33.2,32.3-33.2c14.5,0,27.4,10.1,31.2,24.5
		l0.1,0.4l0.3,5.4l9.8,14l-8.6,6.4v4.9c0,5.9-4.7,10.7-10.4,10.7h-4L761.5,336L761.5,336z M729.4,327.7h24V312h12.1
		c1.3,0,2.3-1.1,2.3-2.4v-9.1l5.4-4l-6.5-9.3l-0.3-7c-3-10.6-12.5-17.9-23.2-17.9c-13.4,0-24.2,11.1-24.2,24.8
		c0,7.5,3.2,14.5,8.9,19.2l1.5,1.3L729.4,327.7L729.4,327.7z"/>
	<path class="st0" d="M793.6,313.4l-5.7-5.9c3.7-3.8,3.7-9.9,0-13.6l5.7-5.9C800.4,295,800.4,306.4,793.6,313.4z"/>
	<path class="st0" d="M804.5,322.2l-5.7-5.9c8.4-8.7,8.4-22.7,0-31.3l5.7-5.9C816.1,291,816.1,310.4,804.5,322.2z"/>
	<path class="st0" d="M817.1,330.5l-5.7-5.9c12.9-13.2,12.9-34.8,0-48l5.7-5.9C833.1,287.3,833.1,314.1,817.1,330.5z"/>
</g>
</svg>
