<?xml version="1.0" encoding="utf-8"?>
<!-- Generator: Adobe Illustrator 21.0.0, SVG Export Plug-In . SVG Version: 6.00 Build 0)  -->
<svg version="1.2" baseProfile="tiny" id="Layer_1" xmlns="http://www.w3.org/2000/svg" xmlns:xlink="http://www.w3.org/1999/xlink"
	 x="0px" y="0px" viewBox="0 0 84 84" overflow="scroll" xml:space="preserve">
<g>
	<path fill="#BCBCBC" d="M23.8,28h-2.6v-1.7c-0.4-0.4-0.7-1-0.7-1.7c0-1.3,0.9-2.3,2-2.3c0.9,0,1.7,0.7,2,1.7l0,0l0,0.4l0.6,1
		l-0.5,0.4v0.3c0,0.4-0.3,0.7-0.7,0.7h-0.3L23.8,28L23.8,28z M21.7,27.5h1.5v-1.1H24c0.1,0,0.1-0.1,0.1-0.2v-0.6l0.3-0.3l-0.4-0.6
		l0-0.5c-0.2-0.7-0.8-1.2-1.4-1.2c-0.8,0-1.5,0.8-1.5,1.7c0,0.5,0.2,1,0.6,1.3l0.1,0.1L21.7,27.5L21.7,27.5z"/>
	<path fill="#BCBCBC" d="M25.8,26.5l-0.4-0.4c0.2-0.3,0.2-0.7,0-0.9l0.4-0.4C26.2,25.2,26.2,26,25.8,26.5z"/>
	<path fill="#BCBCBC" d="M26.5,27.1l-0.4-0.4c0.5-0.6,0.5-1.5,0-2.1l0.4-0.4C27.2,25,27.2,26.3,26.5,27.1z"/>
	<path fill="#BCBCBC" d="M27.2,27.6l-0.4-0.4c0.8-0.9,0.8-2.3,0-3.2l0.4-0.4C28.3,24.7,28.3,26.5,27.2,27.6z"/>
</g>
</svg>
